<svg width="96" height="96" xmlns="http://www.w3.org/2000/svg" xmlns:xlink="http://www.w3.org/1999/xlink" overflow="hidden"><defs><clipPath id="clip0"><rect x="625" y="586" width="96" height="96"/></clipPath></defs><g clip-path="url(#clip0)" transform="translate(-625 -586)"><path d="M703 637C700.2 637 698 635.4 698 633.5 698 631.6 700.2 630 703 630 705.8 630 708 631.6 708 633.5 708 635.4 705.8 637 703 637ZM698 648C695.2 648 693 646.4 693 644.5 693 642.6 695.2 641 698 641 700.8 641 703 642.6 703 644.5 703 646.4 700.8 648 698 648ZM687 620C684.2 620 682 618.4 682 616.5 682 614.6 684.2 613 687 613 689.8 613 692 614.6 692 616.5 692 618.4 689.8 620 687 620ZM687 654C684.2 654 682 652.4 682 650.5 682 648.6 684.2 647 687 647 689.8 647 692 648.6 692 650.5 692 652.4 689.8 654 687 654ZM673 657C670.2 657 668 655.4 668 653.5 668 651.6 670.2 650 673 650 675.8 650 678 651.6 678 653.5 678 655.4 675.8 657 673 657ZM667.6 616.6C669.2 615 671.3 614.7 672.4 615.8 673.5 616.9 673.1 619 671.6 620.6 670 622.2 667.9 622.5 666.8 621.4 665.6 620.3 666 618.1 667.6 616.6ZM659 655C656.2 655 654 653.4 654 651.5 654 649.6 656.2 648 659 648 661.8 648 664 649.6 664 651.5 664 653.4 661.8 655 659 655ZM698 620C700.8 620 703 621.6 703 623.5 703 625.4 700.8 627 698 627 695.2 627 693 625.4 693 623.5 693 621.6 695.2 620 698 620ZM673 606C650.3 606 653.9 614.9 656 617L661 622C664.2 625.3 660.3 629 656.6 627.4L644.1 622C635.3 618.2 633 628.9 633 634 633 649.5 650.9 662 673 662 695.1 662 713 649.5 713 634 713 618.5 695.1 606 673 606Z"/></g></svg>