<svg width="96" height="96" xmlns="http://www.w3.org/2000/svg" xmlns:xlink="http://www.w3.org/1999/xlink" overflow="hidden"><defs><clipPath id="clip0"><rect x="841" y="216" width="96" height="96"/></clipPath></defs><g clip-path="url(#clip0)" transform="translate(-841 -216)"><path d="M916 250 916 254 913 254 913 250 906 250 906 254 903 254 903 250 899 250 899 259 920 259 920 250 916 250Z"/><path d="M896 223 896 228 891 228 891 223 885 223 885 228 880 228 880 223 874 223 874 233 902 233 902 223 896 223Z"/><path d="M873 250 873 254 870 254 870 250 863 250 863 254 860 254 860 250 856 250 856 259 877 259 877 250 873 250Z"/><path d="M909.42 275.32 917 279.68 917 262 902 262 902 282.11 909.42 275.32Z"/><path d="M901.36 289.71 910.43 291.96 914.91 296.69 927.27 300.03 921.92 285.97 909.83 279.01 899.81 288.18 901.36 289.71Z"/><path d="M864.38 284.29 874 281.92 874 262 859 262 859 291.29 864.38 284.29Z"/><path d="M848.78 304 857.5 298.16 866.11 286.95 880.44 283.41 884.39 285.82 889.91 282.61 899.83 292.42 908.86 294.66 913.31 299.36 928.78 304 895.78 304 886 300.22 875.78 304 848.78 304Z"/><path d="M899 248 899 236 877 236 877 248 880 248 880 262 877 262 877 281.17 880.94 280.17 884.43 282.3 890.43 278.83 899 287.38 899 262 896 262 896 248ZM891.5 250.5 884.5 250.5 884.5 244.09C884.5 242.157 886.067 240.59 888 240.59 889.933 240.59 891.5 242.157 891.5 244.09Z"/></g></svg>