<svg width="96" height="96" xmlns="http://www.w3.org/2000/svg" xmlns:xlink="http://www.w3.org/1999/xlink" overflow="hidden"><defs><clipPath id="clip0"><rect x="1057" y="425" width="96" height="96"/></clipPath></defs><g clip-path="url(#clip0)" transform="translate(-1057 -425)"><path d="M1114 463 1112 457.5 1110.58 461.4 1105 436 1099.42 461.4 1098 457.5 1096 463 1096 470 1105 463.25 1114 470 1114 463Z"/><path d="M1106.71 486.228 1105 484.9 1103.31 486.223C1099.66 489.058 1097.54 493.422 1097.55 498.04L1097.55 519 1100.69 519 1100.69 506 1109.29 506 1109.29 519 1112.49 519 1112.49 498.073C1112.51 493.441 1110.37 489.064 1106.71 486.228ZM1105 500C1103.34 500 1102 498.657 1102 497 1102 495.343 1103.34 494 1105 494 1106.66 494 1108 495.343 1108 497 1108 498.657 1106.66 500 1105 500Z"/><path d="M1117 476 1105 467 1093 476 1089 476 1089 519 1094.56 519 1094.56 498.042C1094.54 492.501 1097.09 487.265 1101.46 483.862L1105 481.1 1108.55 483.862C1112.95 487.262 1115.52 492.514 1115.5 498.073L1115.5 519 1121 519 1121 476Z"/><path d="M1142 455 1140 449.5 1138.59 453.375 1133 427 1127.41 453.375 1126 449.5 1124 455 1124 519 1142 519ZM1135.6 509 1130.4 509 1130.4 498.355C1130.4 496.48 1131.01 494.655 1132.13 493.155L1133 492 1133.87 493.156C1134.99 494.656 1135.6 496.481 1135.6 498.356ZM1135.6 477 1130.4 477 1130.4 470.355C1130.4 468.48 1131.01 466.655 1132.13 465.155L1133 464 1133.87 465.156C1134.99 466.656 1135.6 468.481 1135.6 470.356Z"/><path d="M1086 455 1084 449.5 1082.59 453.375 1077 427 1071.41 453.375 1070 449.5 1068 455 1068 519 1086 519ZM1079.6 509 1074.4 509 1074.4 498.355C1074.4 496.48 1075.01 494.655 1076.13 493.155L1077 492 1077.87 493.156C1078.99 494.656 1079.6 496.481 1079.6 498.356ZM1079.6 477 1074.4 477 1074.4 470.355C1074.4 468.48 1075.01 466.655 1076.13 465.155L1077 464 1077.87 465.156C1078.99 466.656 1079.6 468.481 1079.6 470.356Z"/></g></svg>