<svg width="96" height="96" xmlns="http://www.w3.org/2000/svg" xmlns:xlink="http://www.w3.org/1999/xlink" overflow="hidden"><defs><clipPath id="clip0"><rect x="177" y="216" width="96" height="96"/></clipPath></defs><g clip-path="url(#clip0)" transform="translate(-177 -216)"><path d="M207.5 254 265.1 243.8 262.3 228 183.6 242 186.2 256.7 186.4 296C186.4 298.2 188.2 300 190.4 300L262.4 300C264.6 300 266.4 298.2 266.4 296L266.4 254 207.5 254ZM252.4 233.8 259.1 232.6 259.3 233.8 253.8 241.6 246 243.1 252.4 233.8ZM236.2 236.7 244.1 235.3 237.6 244.6 229.7 246 236.2 236.7ZM219.9 239.6 227.8 238.2 221.3 247.5 213.4 248.9 219.9 239.6ZM203.7 242.5 211.6 241.1 205.1 250.4 197.2 251.8 203.7 242.5ZM195.3 244 189.5 252.3 188.2 245.2 195.3 244ZM250.4 279 202.4 279 202.4 267 250.4 267 250.4 279Z"/></g></svg>