<svg width="96" height="96" xmlns="http://www.w3.org/2000/svg" xmlns:xlink="http://www.w3.org/1999/xlink" overflow="hidden"><defs><clipPath id="clip0"><rect x="841" y="425" width="96" height="96"/></clipPath></defs><g clip-path="url(#clip0)" transform="translate(-841 -425)"><path d="M919.6 456.4C932.6 441.8 927.9 436.7 927.9 436.7 926.3 435.1 923.8 435.1 922.2 436.7L884.3 474.6 851.3 505.4C849 507.7 849 511.5 851.3 513.9 853.6 516.2 857.4 516.2 859.8 513.9L889.9 480.9C891.4 481.6 895.4 483.6 896.6 482.3L919.6 456.4Z"/><path d="M929.8 505.4 903.5 480.5 899.5 485C898.8 485.7 897.6 486.6 895.7 486.7L921.4 513.9C923.8 516.2 927.6 516.2 929.9 513.9 932.1 511.5 932.1 507.7 929.8 505.4Z"/><path d="M876.9 472.6C876.9 472.6 878.7 472.2 880.7 472.5L881.5 471.7 888.4 464.8C888.1 462.9 888.5 461 888.5 461 889.2 456.7 887.5 451.7 882.4 446.6 874 438.2 862 430.4 862 430.4L860.2 432.2 880.4 452.4C881 453 881 453.9 880.4 454.5 879.8 455.1 878.9 455.1 878.3 454.5L858.1 434.3 855.3 437.1 875.5 457.3C876.1 457.9 876.1 458.8 875.5 459.4 874.9 460 874 460 873.4 459.4L853.2 439.2 850.4 442 870.6 462.2C871.2 462.8 871.2 463.7 870.6 464.3 870 464.9 869.1 464.9 868.5 464.3L848.2 444.2 846.4 446C846.4 446 854.9 458.8 862.5 466.5 867.6 471.6 872.6 473.3 876.9 472.6Z"/></g></svg>