<svg width="96" height="96" xmlns="http://www.w3.org/2000/svg" xmlns:xlink="http://www.w3.org/1999/xlink" overflow="hidden"><defs><clipPath id="clip0"><rect x="177" y="425" width="96" height="96"/></clipPath></defs><g clip-path="url(#clip0)" transform="translate(-177 -425)"><path d="M267.6 461.3 262.4 459.4 262.4 448.5 267.6 446.3 232.4 433.3 189.6 448.3C185.5 450.3 185.4 455.8 185.4 460.3 185.4 461.8 185.6 463.3 185.9 464.7 182.5 466.9 182.4 472 182.4 476.3 182.4 479.8 183.2 483 185.4 485 184.9 486.7 185.2 488.8 185.2 491.3 185.2 495.8 186.4 499.9 190.4 501.3L218.2 512.8 267.4 492.4 262.2 490.5 262.2 479.5 267.4 477.3 259.4 474.3 259.4 464.7 267.6 461.3ZM190.8 455.3 218.6 466.2 258.5 450.1 258.5 458.7 218.6 475.3 190.8 464.3 190.8 455.3ZM258.3 489.8 218.4 506.3 190.5 495.3 190.5 487.5 215.4 497.7 258.4 480.7 258.3 489.8ZM255.5 474.8 215.6 491.3 187.8 480.3 187.8 471.3 216.4 482.7 255.6 466.3 255.6 474.8Z"/></g></svg>