<svg width="96" height="96" xmlns="http://www.w3.org/2000/svg" xmlns:xlink="http://www.w3.org/1999/xlink" overflow="hidden"><defs><clipPath id="clip0"><rect x="410" y="216" width="96" height="96"/></clipPath></defs><g clip-path="url(#clip0)" transform="translate(-410 -216)"><path d="M458 237.8 472.4 252.3 475.2 249.5 458 233 440.4 249.8 443.2 252.6Z"/><path d="M490 273.9 482 273.9 482 265.9 490 265.9 490 273.9ZM490 285.9 482 285.9 482 277.9 490 277.9 490 285.9ZM478 273.9 470 273.9 470 265.9 478 265.9 478 273.9ZM478 285.9 470 285.9 470 277.9 478 277.9 478 285.9ZM465 273.9 451 273.9 451 269.9 465 269.9 465 273.9ZM458 254.9C459.7 254.9 461 256.2 461 257.9 461 259.6 459.7 260.9 458 260.9 456.3 260.9 455 259.6 455 257.9 455 256.2 456.3 254.9 458 254.9ZM446 273.9 438 273.9 438 265.9 446 265.9 446 273.9ZM446 285.9 438 285.9 438 277.9 446 277.9 446 285.9ZM434 273.9 426 273.9 426 265.9 434 265.9 434 273.9ZM434 285.9 426 285.9 426 277.9 434 277.9 434 285.9ZM470 260.9 470 254.9 458 242.9 446 254.9 446 260.9 422 260.9 422 294.9 451 294.9 451 283.9C451 281.1 453 277.9 458 277.9 463 277.9 465 281.1 465 283.9L465 294.9 494 294.9 494 260.9 470 260.9Z"/></g></svg>