<svg width="96" height="96" xmlns="http://www.w3.org/2000/svg" xmlns:xlink="http://www.w3.org/1999/xlink" overflow="hidden"><defs><clipPath id="clip0"><rect x="626" y="425" width="96" height="96"/></clipPath></defs><g clip-path="url(#clip0)" transform="translate(-626 -425)"><path d="M687.46 476.32C684.92 468.64 676.98 468.43 676.86 468.44L676 460.25C681 455.69 685 449.06 685 441.37 685 430 682 429 680.31 428.83 678.62 428.66 674.7 431.23 672.38 437.05 670.06 442.87 671.17 452.05 671.48 454.54 671.48 454.54 657.13 462.67 657.27 477.54 657.27 479.97 658.88 493.82 676.46 493.78 677.177 496.65 677.513 499.602 677.46 502.56 677.03 507.56 674.17 508.83 671.87 508.98 674.187 506.611 674.144 502.812 671.775 500.495 669.405 498.179 665.607 498.221 663.29 500.591 662.195 501.71 661.581 503.214 661.58 504.78 661.622 506.933 662.707 508.932 664.49 510.14 672.28 515.83 681.74 510.3 680.95 501.68 680.85 500.59 680.1 494.4 679.89 492.74 679.89 492.74 684.4 490.74 686.4 487.28 688.183 483.909 688.564 479.97 687.46 476.32ZM679.83 438.26C682 439 681 443.39 680.31 445 679.62 446.61 677 451.42 674.93 452.23 674 443.42 677 438 679.83 438.26ZM664.1 485.3C657.17 470.08 672.85 462.11 673 462 673.2 463.65 673.25 467.55 673.45 469.21 666.63 471.63 665.63 477.52 666 480.5 666.9 487.65 673.93 488.64 674.37 487.5 674.569 487.135 674.521 486.685 674.25 486.37 668.04 479.49 674.01 476.57 674.34 476.45L676 490.34C670.88 491.5 665.38 488.13 664.1 485.3ZM679.39 489.11 677.88 475.88C681.3 475.5 687.3 482.29 679.39 489.11Z"/></g></svg>