<svg width="96" height="96" xmlns="http://www.w3.org/2000/svg" xmlns:xlink="http://www.w3.org/1999/xlink" overflow="hidden"><defs><clipPath id="clip0"><rect x="1057" y="216" width="96" height="96"/></clipPath></defs><g clip-path="url(#clip0)" transform="translate(-1057 -216)"><path d="M1133 260C1133 262.2 1131.2 264 1129 264 1126.8 264 1125 262.2 1125 260L1125 256 1123 236 1131 236 1133 256 1133 260ZM1117 260C1117 262.2 1115.2 264 1113 264 1110.8 264 1109 262.2 1109 260L1109 256 1108 236 1116 236 1117 256 1117 260ZM1101 256 1101 260C1101 262.2 1099.2 264 1097 264 1094.8 264 1093 262.2 1093 260L1093 256 1094 236 1102 236 1101 256ZM1097 288 1081 288 1081 272 1097 272 1097 288ZM1077 260 1077 256 1079 236 1087 236 1085 256 1085 260C1085 262.2 1083.2 264 1081 264 1078.8 264 1077 262.2 1077 260ZM1137 230 1073 230 1069 256 1069 260C1069 262.2 1070.8 264 1073 264L1073 298 1107 298 1107 272 1129 272 1129 298 1137 298 1137 264C1139.2 264 1141 262.2 1141 260L1141 256 1137 230Z"/></g></svg>