<svg width="96" height="96" xmlns="http://www.w3.org/2000/svg" xmlns:xlink="http://www.w3.org/1999/xlink" overflow="hidden"><defs><clipPath id="clip0"><rect x="625" y="216" width="96" height="96"/></clipPath></defs><g clip-path="url(#clip0)" transform="translate(-625 -216)"><path d="M707 265.064 707 251 710.108 251C711.113 251.022 711.989 250.321 712.187 249.336 712.373 248.247 711.64 247.214 710.551 247.028 710.44 247.01 710.328 247 710.215 247L698 247 698 222.107C698.022 221.102 697.321 220.226 696.336 220.027 695.247 219.841 694.214 220.574 694.028 221.663 694.009 221.774 694 221.887 694 222L694 225 652 225 652 222.107C652.022 221.102 651.321 220.226 650.336 220.027 649.247 219.841 648.214 220.574 648.028 221.663 648.009 221.774 648 221.887 648 222L648 247 641.126 247C641.083 247 641.043 246.987 641 246.987 640.957 246.987 640.917 246.997 640.874 247L635.892 247C634.887 246.978 634.011 247.679 633.813 248.664 633.627 249.753 634.36 250.786 635.449 250.972 635.56 250.991 635.672 251 635.785 251L639 251 639 265.064C639 265.664 639.144 266.256 639.42 266.789L639.434 266.816C639.716 267.361 640.128 267.829 640.634 268.178L669.477 288.069 645.953 304.292C645.088 304.863 644.776 305.985 645.224 306.92 645.732 307.901 646.939 308.284 647.92 307.776 647.995 307.737 648.067 307.694 648.136 307.646L673 290.5 697.864 307.646C698.773 308.273 700.019 308.045 700.646 307.136 700.694 307.067 700.737 306.995 700.776 306.92 701.224 305.985 700.912 304.863 700.047 304.292L676.523 288.069 705.365 268.178C705.87 267.829 706.283 267.361 706.565 266.816L706.579 266.789C706.855 266.256 707 265.664 707 265.064ZM694 249 694 256.289C680.389 260.948 665.617 260.958 652 256.319L652 249ZM648 251 648 257.9 643 262.9 643 251ZM653.171 271.964C653.166 271.962 653.164 271.956 653.167 271.952 653.169 271.947 653.174 271.945 653.179 271.947 659.634 273.645 666.281 274.501 672.956 274.494 679.68 274.501 686.376 273.632 692.876 271.909 692.881 271.907 692.886 271.909 692.888 271.914 692.891 271.918 692.889 271.924 692.884 271.926L673 285.639ZM703 262.986 698 257.986 698 251 703 251Z"/></g></svg>